#!OML:ASF H:\Terrain\Patient Classification 1\Terrain2\Thursday\justin.ASF
:FULLY-SPECIFIED
:DEGREES
2070
root -11.9555 17.4656 -0.915838 899.077 -160.729 -541.969
lowerback 6.20109 0.865536 4.97479
upperback 1.56905 1.506 2.59144
thorax -1.7982 0.729759 -0.232895
lowerneck -16.1701 2.08706 -5.29838
upperneck 33.6435 5.12336 -1.18181
head 14.1302 1.31641 1.27938
rclavicle 9.49197e-015 1.19271e-014
rhumerus -33.9457 -14.6548 -69.9262
rradius 26.8469
rwrist -7.47322
rhand -24.8119 11.3092
rfingers 7.12502
rthumb 1.69322 -18.6639
lclavicle 9.49197e-015 1.19271e-014
lhumerus -32.7415 7.54102 84.6595
lradius 33.7701
lwrist 5.34077
lhand -17.0013 22.8343
lfingers 7.12502
lthumb 9.2341 52.6121
rfemur -8.92704 -25.5144 24.3068
rtibia 42.9498
rfoot -20.5539 -21.6909
rtoes -5.72
lfemur -7.21405 -0.680309 -16.473
ltibia 29.5845
lfoot -17.5762 -0.335146
ltoes -7.46394
2071
root -11.9474 17.4629 -0.894096 898.685 -161.678 -541.452
lowerback 6.12108 0.909133 4.38447
upperback 1.75769 1.51151 2.46548
thorax -1.57119 0.740823 -0.0306752
lowerneck -16.2235 1.80926 -5.59624
upperneck 33.5861 4.67355 -0.777152
head 14.1035 1.14636 1.42147
rclavicle -4.47266e-016 -2.62396e-014
rhumerus -33.8434 -15.0645 -69.6322
rradius 26.5742
rwrist -7.37156
rhand -24.1686 11.4265
rfingers 7.12502
rthumb 2.31449 -18.5407
lclavicle -4.47266e-016 -2.62396e-014
lhumerus -32.5126 7.50091 84.872
lradius 33.6494
lwrist 4.83124
lhand -16.5867 24.3553
lfingers 7.12502
lthumb 9.63411 54.115
rfemur -8.90412 -25.9645 23.4525
rtibia 43.705
rfoot -20.6708 -21.3662
rtoes -3.9729
lfemur -6.78794 -1.45134 -17.1659
ltibia 29.1577
lfoot -17.6947 -0.500636
ltoes -5.52984
2072
root -11.9406 17.4592 -0.878434 898.418 -162.553 -541.231
lowerback 6.17846 0.871507 3.96978
upperback 1.87899 1.4345 2.43827
thorax -1.49057 0.705642 0.178297
lowerneck -16.2102 1.66641 -5.70248
upperneck 33.5723 4.44152 -0.612148
head 14.0923 1.05888 1.4687
rclavicle -2.13694e-014 -1.59028e-014
rhumerus -33.7029 -15.4022 -69.4428
rradius 26.3507
rwrist -7.27562
rhand -24.2526 11.1859
rfingers 7.12502
rthumb 2.23339 -18.7822
lclavicle -2.13694e-014 -1.59028e-014
lhumerus -32.4534 7.68499 84.9497
lradius 33.4814
lwrist 4.51981
lhand -16.7578 24.2867
lfingers 7.12502
lthumb 9.46908 54.054
rfemur -8.90168 -26.032 22.9583
rtibia 44.4854
rfoot -21.2298 -20.779
rtoes -0.855172
lfemur -6.39007 -1.64226 -17.4538
ltibia 28.6547
lfoot -17.17 -1.15462
ltoes -4.67768
2073
root -11.933 17.4536 -0.863223 898.266 -163.41 -541.229
lowerback 6.21725 0.83764 3.76593
upperback 1.94345 1.37799 2.4953
thorax -1.45366 0.678706 0.354799
lowerneck -16.2243 1.53708 -5.69538
upperneck 33.654 4.27127 -0.647842
head 14.1397 0.980038 1.42754
rclavicle 1.67973e-014 3.97569e-015
rhumerus -33.7679 -15.5001 -69.2365
rradius 26.3128
rwrist -7.40666
rhand -24.6098 11.2666
rfingers 7.12502
rthumb 1.88845 -18.7048
lclavicle 1.67973e-014 3.97569e-015
lhumerus -32.3736 7.90893 85.0756
lradius 33.1444
lwrist 4.35063
lhand -16.5463 23.9208
lfingers 7.12502
lthumb 9.67315 53.6787
rfemur -8.94553 -26.1572 22.7153
rtibia 45.2209
rfoot -21.4041 -20.4382
rtoes 0.158971
lfemur -6.07146 -1.75652 -17.4909
ltibia 28.1696
lfoot -17.5505 -1.3028
ltoes -10.2875
2074
root -11.9225 17.4489 -0.844647 898.036 -164.216 -541.043
lowerback 6.27496 0.907031 3.46084
upperback 2.00124 1.4528 2.47344
thorax -1.43211 0.717102 0.496828
lowerneck -16.1655 1.29012 -5.77154
upperneck 33.6339 3.87862 -0.500313
head 14.1232 0.826016 1.43595
rclavicle -1.15991e-013 -1.19271e-014
rhumerus -34.0688 -15.4825 -69.0387
rradius 26.5395
rwrist -7.75157
rhand -24.8885 11.3647
rfingers 7.12502
rthumb 1.61926 -18.6089
lclavicle -1.15991e-013 -1.19271e-014
lhumerus -32.2143 7.85853 85.2933
lradius 32.73
lwrist 4.16867
lhand -16.169 23.6
lfingers 7.12502
lthumb 10.0371 53.3407
rfemur -8.94917 -26.5501 22.1953
rtibia 45.8839
rfoot -21.1073 -20.4264
rtoes -1.38403
lfemur -5.7895 -1.79629 -17.7068
ltibia 27.7913
lfoot -17.025 -2.39904
ltoes -7.29872
2075
root -11.9123 17.4428 -0.824808 897.693 -165.055 -540.795
lowerback 6.39176 0.978997 3.14048
upperback 2.15868 1.52774 2.40335
thorax -1.3405 0.756708 0.597797
lowerneck -16.1678 0.986813 -6.00843
upperneck 33.6067 3.3812 -0.131898
head 14.1122 0.636837 1.54522
rclavicle 2.48481e-016 -1.51076e-014
rhumerus -34.1123 -15.8404 -68.8187
rradius 26.4899
rwrist -7.70244
rhand -24.7061 11.6986
rfingers 7.12502
rthumb 1.79545 -18.2736
lclavicle 2.48481e-016 -1.51076e-014
lhumerus -32.0212 7.42161 85.6191
lradius 32.4557
lwrist 4.50038
lhand -16.4538 23.2626
lfingers 7.12502
lthumb 9.76233 53.0163
rfemur -8.82475 -27.0335 21.562
rtibia 46.5003
rfoot -20.5203 -20.6514
rtoes -4.60356
lfemur -5.44281 -1.53554 -17.9329
ltibia 27.4772
lfoot -16.5572 -3.77113
ltoes -6.01783
2076
root -11.9048 17.4397 -0.808704 897.486 -166.001 -540.68
lowerback 6.47876 0.927556 2.93312
upperback 2.22787 1.44801 2.36329
thorax -1.32293 0.717598 0.677472
lowerneck -16.0342 0.815816 -6.15329
upperneck 33.6583 3.08695 0.102104
head 14.1074 0.52559 1.61646
rclavicle -1.20265e-014 -1.66979e-014
rhumerus -34.1203 -16.1058 -68.6818
rradius 26.3979
rwrist -7.40876
rhand -24.7273 11.827
rfingers 7.12502
rthumb 1.77494 -18.1454
lclavicle -1.20265e-014 -1.66979e-014
lhumerus -32.1965 7.10437 85.81
lradius 32.4878
lwrist 4.92763
lhand -16.8568 23.2244
lfingers 7.12502
lthumb 9.37356 52.996
rfemur -8.83712 -27.6262 21.1793
rtibia 47.1187
rfoot -19.682 -20.954
rtoes -7.54967
lfemur -5.22546 -1.30839 -18.0032
ltibia 27.1673
lfoot -16.6049 -4.76508
ltoes -8.96712
2077
root -11.8964 17.4449 -0.794588 897.453 -166.913 -540.611
lowerback 6.51886 0.855853 2.83981
upperback 2.17688 1.35018 2.28227
thorax -1.39899 0.668289 0.652283
lowerneck -15.8634 0.700842 -6.0808
upperneck 33.7138 2.85513 0.18592
head 14.1011 0.447815 1.59931
rclavicle -3.18055e-015 -8.74653e-015
rhumerus -34.2468 -16.4146 -68.5697
rradius 26.3894
rwrist -7.10313
rhand -24.9523 11.2927
rfingers 7.12502
rthumb 1.55767 -18.6814
lclavicle -3.18055e-015 -8.74653e-015
lhumerus -32.4578 7.12818 85.7257
lradius 32.4368
lwrist 4.73964
lhand -16.5265 23.1987
lfingers 7.12502
lthumb 9.69217 52.9557
rfemur -8.97755 -28.1062 20.8417
rtibia 47.7653
rfoot -19.6845 -20.4459
rtoes -5.46314
lfemur -5.1983 -1.04028 -18.0303
ltibia 26.8624
lfoot -16.5446 -5.93188
ltoes -9.53041
2078
root -11.8911 17.4544 -0.783462 897.495 -167.715 -540.532
lowerback 6.50953 0.882461 2.62139
upperback 2.18285 1.37159 2.26014
thorax -1.39231 0.679223 0.750293
lowerneck -15.9032 0.512688 -6.12214
upperneck 33.7567 2.55134 0.324918
head 14.1374 0.331558 1.61536
rclavicle 1.76421e-014 1.66979e-014
rhumerus -34.3909 -16.9096 -68.3472
rradius 26.5475
rwrist -6.93696
rhand -24.8487 10.8177
rfingers 7.12502
rthumb 1.65773 -19.1556
lclavicle 1.76421e-014 1.66979e-014
lhumerus -32.2924 6.98804 85.7934
lradius 32.1068
lwrist 4.54383
lhand -16.2975 22.815
lfingers 7.12502
lthumb 9.91316 52.5616
rfemur -9.20616 -28.1267 20.5529
rtibia 48.475
rfoot -20.4012 -19.6148
rtoes -0.530738
lfemur -5.22669 -0.478464 -18.0095
ltibia 26.5125
lfoot -16.2504 -7.53502
ltoes -7.81324
2079
root -11.8936 17.4637 -0.771954 897.513 -168.456 -540.354
lowerback 6.44642 0.915645 2.15795
upperback 2.24256 1.38341 2.28345
thorax -1.30767 0.685579 1.03451
lowerneck -15.9715 0.32631 -6.45072
upperneck 33.7832 2.28384 0.634026
head 14.1661 0.218169 1.75601
rclavicle -1.20762e-014 -1.27222e-014
rhumerus -34.5415 -16.8872 -68.3542
rradius 27.0026
rwrist -7.14988
rhand -25.0055 10.4663
rfingers 7.12502
rthumb 1.50626 -19.5081
lclavicle -1.20762e-014 -1.27222e-014
lhumerus -32.0334 6.55178 86.0592
lradius 31.7395
lwrist 4.91579
lhand -16.4459 22.4836
lfingers 7.12502
lthumb 9.76997 52.237
rfemur -9.59931 -28.0172 20.3419
rtibia 49.2629
rfoot -20.374 -19.7415
rtoes 0.66466
lfemur -5.19628 0.118939 -18.0451
ltibia 26.0682
lfoot -15.8155 -9.26387
ltoes -5.23635
2080
root -11.8872 17.4672 -0.748958 897.455 -169.231 -539.752
lowerback 6.2228 0.917569 1.55697
upperback 2.33045 1.33725 2.06848
thorax -1.1019 0.663381 1.15797
lowerneck -16.1379 0.129681 -6.66447
upperneck 33.833 1.99404 0.884995
head 14.2327 0.100199 1.85107
rclavicle 1.78906e-015 -6.36111e-015
rhumerus -34.46 -16.8446 -68.5392
rradius 27.1063
rwrist -7.28162
rhand -25.5308 10.1694
rfingers 7.12502
rthumb 0.998953 -19.808
lclavicle 1.78906e-015 -6.36111e-015
lhumerus -31.8661 6.04609 86.1965
lradius 31.3596
lwrist 5.356
lhand -16.2489 22.2275
lfingers 7.12502
lthumb 9.96006 51.9718
rfemur -10.0039 -28.2959 19.5097
rtibia 50.1162
rfoot -19.4318 -19.9893
rtoes -0.54154
lfemur -5.08838 0.438291 -18.6478
ltibia 25.6067
lfoot -15.4419 -10.6077
ltoes -2.70935
